[Header]
FileType HTR
DataType HTRS
FileVersion 1
NumSegments 64
NumFrames 3
DataFrameRate 24
EulerRotationOrder ZYX
CalibrationUnits mm
RotationUnits Degrees
GlobalAxisofGravity Y
BoneLengthAxis Y
ScaleFactor 1.0
[SegmentNames&Hierarchy]
Hips	GLOBAL
Spine	Hips
Spine1	Spine
Spine2	Spine1
Neck	Spine2
Head	Neck
LeftEye	Head
RightEye	Head
LeftShoulder	Spine2
LeftArm	LeftShoulder
LeftForeArm	LeftArm
LeftHand	LeftForeArm
LeftHandThumb1	LeftHand
LeftHandThumb2	LeftHandThumb1
LeftHandThumb3	LeftHandThumb2
LeftHandThumb4	LeftHandThumb3
LeftHandIndex1	LeftHand
LeftHandIndex2	LeftHandIndex1
LeftHandIndex3	LeftHandIndex2
LeftHandIndex4	LeftHandIndex3
LeftHandMiddle1	LeftHand
LeftHandMiddle2	LeftHandMiddle1
LeftHandMiddle3	LeftHandMiddle2
LeftHandMiddle4	LeftHandMiddle3
LeftHandRing1	LeftHand
LeftHandRing2	LeftHandRing1
LeftHandRing3	LeftHandRing2
LeftHandRing4	LeftHandRing3
LeftHandPinky1	LeftHand
LeftHandPinky2	LeftHandPinky1
LeftHandPinky3	LeftHandPinky2
LeftHandPinky4	LeftHandPinky3
RightShoulder	Spine2
RightArm	RightShoulder
RightForeArm	RightArm
RightHand	RightForeArm
RightHandPinky1	RightHand
RightHandPinky2	RightHandPinky1
RightHandPinky3	RightHandPinky2
RightHandPinky4	RightHandPinky3
RightHandRing1	RightHand
RightHandRing2	RightHandRing1
RightHandRing3	RightHandRing2
RightHandRing4	RightHandRing3
RightHandMiddle1	RightHand
RightHandMiddle2	RightHandMiddle1
RightHandMiddle3	RightHandMiddle2
RightHandMiddle4	RightHandMiddle3
RightHandIndex1	RightHand
RightHandIndex2	RightHandIndex1
RightHandIndex3	RightHandIndex2
RightHandIndex4	RightHandIndex3
RightHandThumb1	RightHand
RightHandThumb2	RightHandThumb1
RightHandThumb3	RightHandThumb2
RightHandThumb4	RightHandThumb3
LeftUpLeg	Hips
LeftLeg	LeftUpLeg
LeftFoot	LeftLeg
LeftToeBase	LeftFoot
RightUpLeg	Hips
RightLeg	RightUpLeg
RightFoot	RightLeg
RightToeBase	RightFoot
[BasePosition]
Hips	0	0	0	0	0	0	1
Spine	0	0	0	0	0	0	1
Spine1	0	0	0	0	0	0	1
Spine2	0	0	0	0	0	0	1
Neck	0	0	0	0	0	0	1
Head	0	0	0	0	0	0	1
LeftEye	0	0	0	0	0	0	1
RightEye	0	0	0	0	0	0	1
LeftShoulder	0	0	0	0	0	0	1
LeftArm	0	0	0	0	0	0	1
LeftForeArm	0	0	0	0	0	0	1
LeftHand	0	0	0	0	0	0	1
LeftHandThumb1	0	0	0	0	0	0	1
LeftHandThumb2	0	0	0	0	0	0	1
LeftHandThumb3	0	0	0	0	0	0	1
LeftHandThumb4	0	0	0	0	0	0	1
LeftHandIndex1	0	0	0	0	0	0	1
LeftHandIndex2	0	0	0	0	0	0	1
LeftHandIndex3	0	0	0	0	0	0	1
LeftHandIndex4	0	0	0	0	0	0	1
LeftHandMiddle1	0	0	0	0	0	0	1
LeftHandMiddle2	0	0	0	0	0	0	1
LeftHandMiddle3	0	0	0	0	0	0	1
LeftHandMiddle4	0	0	0	0	0	0	1
LeftHandRing1	0	0	0	0	0	0	1
LeftHandRing2	0	0	0	0	0	0	1
LeftHandRing3	0	0	0	0	0	0	1
LeftHandRing4	0	0	0	0	0	0	1
LeftHandPinky1	0	0	0	0	0	0	1
LeftHandPinky2	0	0	0	0	0	0	1
LeftHandPinky3	0	0	0	0	0	0	1
LeftHandPinky4	0	0	0	0	0	0	1
RightShoulder	0	0	0	0	0	0	1
RightArm	0	0	0	0	0	0	1
RightForeArm	0	0	0	0	0	0	1
RightHand	0	0	0	0	0	0	1
RightHandPinky1	0	0	0	0	0	0	1
RightHandPinky2	0	0	0	0	0	0	1
RightHandPinky3	0	0	0	0	0	0	1
RightHandPinky4	0	0	0	0	0	0	1
RightHandRing1	0	0	0	0	0	0	1
RightHandRing2	0	0	0	0	0	0	1
RightHandRing3	0	0	0	0	0	0	1
RightHandRing4	0	0	0	0	0	0	1
RightHandMiddle1	0	0	0	0	0	0	1
RightHandMiddle2	0	0	0	0	0	0	1
RightHandMiddle3	0	0	0	0	0	0	1
RightHandMiddle4	0	0	0	0	0	0	1
RightHandIndex1	0	0	0	0	0	0	1
RightHandIndex2	0	0	0	0	0	0	1
RightHandIndex3	0	0	0	0	0	0	1
RightHandIndex4	0	0	0	0	0	0	1
RightHandThumb1	0	0	0	0	0	0	1
RightHandThumb2	0	0	0	0	0	0	1
RightHandThumb3	0	0	0	0	0	0	1
RightHandThumb4	0	0	0	0	0	0	1
LeftUpLeg	0	0	0	0	0	0	1
LeftLeg	0	0	0	0	0	0	1
LeftFoot	0	0	0	0	0	0	1
LeftToeBase	0	0	0	0	0	0	1
RightUpLeg	0	0	0	0	0	0	1
RightLeg	0	0	0	0	0	0	1
RightFoot	0	0	0	0	0	0	1
RightToeBase	0	0	0	0	0	0	1
[Hips]
21	4.274551392	953.3794556	1434.522827	1.553251386	5.577075958	1.064280629	1.0
22	-4.777912617	958.0446777	1506.415283	1.611968517	4.754212856	0.8701169491	1.0
23	-10.5886097	968.4853516	1566.444824	1.804094315	4.010853767	0.6142957211	1.0
[Spine]
21	0	101.8159943	1.315000057	4.055361271	-6.962378502	-0.8435533047	1.0
22	0	101.8159943	1.315000057	3.892272472	-6.592286587	-1.100669265	1.0
23	0	101.8159943	1.315000057	4.472340584	-4.531840801	-1.378372312	1.0
[Spine1]
21	0	100.8349991	-10.00800037	2.073140621	-7.569748878	2.553982019	1.0
22	0	100.8349991	-10.00800037	2.016912222	-7.068846226	2.563441992	1.0
23	0	100.8349991	-10.00800037	2.156294107	-6.275908947	2.333617449	1.0
[Spine2]
21	0	91	-13.73399925	1.885483027	-7.529153347	2.780510664	1.0
22	0	91	-13.73399925	1.834004045	-7.04325819	2.75753355	1.0
23	0	91	-13.73399925	2.022581339	-6.254109383	2.519498587	1.0
[Neck]
21	0	166.7169952	-25.16200066	-0.05850331485	5.080913067	0.01643095538	1.0
22	0	166.7169952	-25.16200066	0.09835829586	4.629473686	0.84082973	1.0
23	0	166.7169952	-25.16200066	-0.1017829403	3.868703365	1.370614529	1.0
[Head]
21	0	96.17900085	16.84999847	-5.716938019	12.46205425	-5.873445511	1.0
22	0	96.17900085	16.84999847	-4.821424961	12.63815689	-5.668559074	1.0
23	0	96.17900085	16.84999847	-4.782248974	10.65594387	-4.502885818	1.0
[LeftEye]
21	30.6760006	64.09500122	92.83599854	0	0	0	1.0
22	30.6760006	64.09500122	92.83599854	0	0	0	1.0
23	30.6760006	64.09500122	92.83599854	0	0	0	1.0
[RightEye]
21	-30.6760006	64.09500122	92.83499908	0	0	0	1.0
22	-30.6760006	64.09500122	92.83499908	0	0	0	1.0
23	-30.6760006	64.09500122	92.83499908	0	0	0	1.0
[LeftShoulder]
21	45.70400238	109.4599991	-26.28000069	2.677124023	-9.506825447	-13.68594837	1.0
22	45.70400238	109.4599991	-26.28000069	2.572933435	-9.134440422	-13.46509361	1.0
23	45.70400238	109.4599991	-26.28000069	2.603677988	-9.227982521	-13.57615757	1.0
[LeftArm]
21	105.923996	-5.24600029	-22.32099915	20.96329308	-19.39168358	-46.44962692	1.0
22	105.923996	-5.24600029	-22.32099915	21.23817444	-15.82234573	-50.81535721	1.0
23	105.923996	-5.24600029	-22.32099915	23.70448685	-14.74537563	-53.81253433	1.0
[LeftForeArm]
21	278.414978	-0.0009999999311	0	8.497364433e-06	-52.75354385	-0.0002323253866	1.0
22	278.414978	-0.0009999999311	0	3.622441682e-06	-44.74526596	-0.0002070244809	1.0
23	278.414978	-0.0009999999311	0	5.995622814e-06	-32.72820282	-0.0002119171841	1.0
[LeftHand]
21	283.2879944	0	0	0.4990550876	-1.486287713	18.5925293	1.0
22	283.2879944	0	0	-1.67799592	-1.234641671	20.06085205	1.0
23	283.2879944	0	0	-3.95671916	-1.117950201	14.9960146	1.0
[LeftHandThumb1]
21	24.6609993	-15.75	26.8239994	5.839803696	2.504242897	11.148386	1.0
22	24.6609993	-15.75	26.8239994	5.839803696	2.504242897	11.148386	1.0
23	24.6609993	-15.75	26.8239994	5.839803696	2.504242897	11.148386	1.0
[LeftHandThumb2]
21	32.29800034	-18.64699936	18.64699936	6.026762962	13.67527962	7.247690201	1.0
22	32.29800034	-18.64699936	18.64699936	7.360778332	13.36523628	7.29739809	1.0
23	32.29800034	-18.64699936	18.64699936	7.374670029	12.21318913	6.928197384	1.0
[LeftHandThumb3]
21	26.52600098	-15.31499958	15.31499958	-0.5965710878	-6.976623535	21.64916229	1.0
22	26.52600098	-15.31499958	15.31499958	-0.8332031369	-7.527503014	21.79300499	1.0
23	26.52600098	-15.31499958	15.31499958	-1.327033281	-8.749657631	21.80796242	1.0
[LeftHandThumb4]
21	19.54599953	-11.28499985	11.28499985	0	0	0	1.0
22	19.54599953	-11.28499985	11.28499985	0	0	0	1.0
23	19.54599953	-11.28499985	11.28499985	0	0	0	1.0
[LeftHandIndex1]
21	91.09299469	-5.170999527	22.60099792	-0.7754496336	-1.700140715	-21.53119469	1.0
22	91.09299469	-5.170999527	22.60099792	-0.6860138178	-1.369607806	-21.15596008	1.0
23	91.09299469	-5.170999527	22.60099792	-0.7476939559	-1.343042016	-21.96328163	1.0
[LeftHandIndex2]
21	36.76399994	0	0	-0.1976343244	1.506905198	-14.94299793	1.0
22	36.76399994	0	0	-0.1971649975	1.50510633	-14.92463398	1.0
23	36.76399994	0	0	-0.1974072307	1.505969286	-14.93336487	1.0
[LeftHandIndex3]
21	28.83100128	0	0	-0.1976390332	1.506939173	-14.94299316	1.0
22	28.83100128	0	0	-0.1971633285	1.505114436	-14.92464161	1.0
23	28.83100128	0	0	-0.1973826587	1.505974531	-14.93333912	1.0
[LeftHandIndex4]
21	23.92700005	0	0	0	0	0	1.0
22	23.92700005	0	0	0	0	0	1.0
23	23.92700005	0	0	0	0	0	1.0
[LeftHandMiddle1]
21	95.33399963	0	0	-1.867553949	4.242307663	-29.57544327	1.0
22	95.33399963	0	0	-1.81881094	4.506703377	-29.00771523	1.0
23	95.33399963	0	0	-1.873354316	4.999988079	-29.64251328	1.0
[LeftHandMiddle2]
21	36.98199844	0	0	-0.1229976788	1.192680597	-11.77492809	1.0
22	36.98199844	0	0	-0.1237286255	1.196181178	-11.80991745	1.0
23	36.98199844	0	0	-0.1251880676	1.203124642	-11.87957287	1.0
[LeftHandMiddle3]
21	29.50900078	0	0	-0.1678616405	1.390625834	-13.7654953	1.0
22	29.50900078	0	0	-0.1687105	1.394087672	-13.80052662	1.0
23	29.50900078	0	0	-0.1704209894	1.40099144	-13.8701601	1.0
[LeftHandMiddle4]
21	28.3390007	0	0	0	0	0	1.0
22	28.3390007	0	0	0	0	0	1.0
23	28.3390007	0	0	0	0	0	1.0
[LeftHandRing1]
21	91.04499817	-0.4390000105	-18.65100098	-1.93360424	6.958673477	-30.35782814	1.0
22	91.04499817	-0.4390000105	-18.65100098	-1.920357823	6.97040081	-30.20674133	1.0
23	91.04499817	-0.4390000105	-18.65100098	-1.992726326	7.178799629	-31.0366745	1.0
[LeftHandRing2]
21	31.54000092	0	0	-0.3336100578	1.945970893	-19.4532814	1.0
22	31.54000092	0	0	-0.3274053633	1.928389192	-19.27015114	1.0
23	31.54000092	0	0	-0.325915277	1.924110532	-19.22582054	1.0
[LeftHandRing3]
21	29.37700081	0	0	-0.4044342637	2.135839462	-21.44202423	1.0
22	29.37700081	0	0	-0.3976127207	2.118448734	-21.25879669	1.0
23	29.37700081	0	0	-0.3959641159	2.114187479	-21.21389198	1.0
[LeftHandRing4]
21	26.47500038	0	0	0	0	0	1.0
22	26.47500038	0	0	0	0	0	1.0
23	26.47500038	0	0	0	0	0	1.0
[LeftHandPinky1]
21	80.77799988	-4.887000084	-38.06099701	-2.344510555	4.325053692	-34.7490387	1.0
22	80.77799988	-4.887000084	-38.06099701	-2.375335455	4.798681736	-35.08255386	1.0
23	80.77799988	-4.887000084	-38.06099701	-2.478300095	6.128421783	-35.36846542	1.0
[LeftHandPinky2]
21	36	0	0	-0.2664435208	1.744328856	-17.36787033	1.0
22	36	0	0	-0.2618848681	1.729707599	-17.21760178	1.0
23	36	0	0	-0.2641228437	1.736907005	-17.29157829	1.0
[LeftHandPinky3]
21	21.14200211	0	0	-0.266415	1.744240642	-17.36682701	1.0
22	21.14200211	0	0	-0.2618754208	1.729684114	-17.21738052	1.0
23	21.14200211	0	0	-0.2641324401	1.736904502	-17.29154968	1.0
[LeftHandPinky4]
21	19.75699997	0	0	0	0	0	1.0
22	19.75699997	0	0	0	0	0	1.0
23	19.75699997	0	0	0	0	0	1.0
[RightShoulder]
21	-45.70000076	109.4620056	-26.28000069	1.284513116	2.391624928	15.29473972	1.0
22	-45.70000076	109.4620056	-26.28000069	1.40078187	2.623322487	16.1904335	1.0
23	-45.70000076	109.4620056	-26.28000069	1.450304031	2.612468958	16.86643791	1.0
[RightArm]
21	-105.9280014	-5.248000145	-22.32099915	20.57150269	-4.541955471	56.03741074	1.0
22	-105.9280014	-5.248000145	-22.32099915	22.31773567	-0.4768107831	54.26744461	1.0
23	-105.9280014	-5.248000145	-22.32099915	21.24409103	3.865924358	53.72558594	1.0
[RightForeArm]
21	-278.414978	0	0	-5.042293765e-07	9.311465263	-7.927686056e-06	1.0
22	-278.414978	0	0	-3.521251983e-07	11.02008247	-1.094819254e-05	1.0
23	-278.414978	0	0	3.812280738e-06	13.60850334	1.998847983e-05	1.0
[RightHand]
21	-283.2879944	0	0.0009999999311	4.37055397	-12.34651661	23.19797897	1.0
22	-283.2879944	0	0.0009999999311	4.556133747	-12.81101894	22.08515358	1.0
23	-283.2879944	0	0.0009999999311	1.539031148	-10.58307266	17.77766228	1.0
[RightHandPinky1]
21	-80.76699829	-4.885000229	-38.06000137	-2.072226524	-1.70347178	28.99066734	1.0
22	-80.76699829	-4.885000229	-38.06000137	-2.43109107	-0.3836927712	30.74375916	1.0
23	-80.76699829	-4.885000229	-38.06000137	-2.521060705	-0.2407131195	31.55786133	1.0
[RightHandPinky2]
21	-36	0	0.0009999999311	-0.5528150201	-2.195963383	28.27722359	1.0
22	-36	0	0.0009999999311	-0.5694889426	-2.22666955	28.70915031	1.0
23	-36	0	0.0009999999311	-0.5735508204	-2.234060049	28.81340408	1.0
[RightHandPinky3]
21	-21.14200211	0	0	-0.1692481339	-1.241704822	15.5223732	1.0
22	-21.14200211	0	0	-0.177991122	-1.272763371	15.92088604	1.0
23	-21.14200211	0	0	-0.1802057773	-1.280519605	16.02057838	1.0
[RightHandPinky4]
21	-19.75699997	0	0	0	0	0	1.0
22	-19.75699997	0	0	0	0	0	1.0
23	-19.75699997	0	0	0	0	0	1.0
[RightHandRing1]
21	-91.03599548	-0.4390000105	-18.65100098	-1.333597422	-2.329517603	24.71727562	1.0
22	-91.03599548	-0.4390000105	-18.65100098	-1.509347677	-1.626276851	27.20576668	1.0
23	-91.03599548	-0.4390000105	-18.65100098	-1.595678329	-1.350078225	28.39702225	1.0
[RightHandRing2]
21	-31.54000092	0	0	-1.479206443	-3.394488335	47.08189392	1.0
22	-31.54000092	0	0	-1.48339653	-3.398373365	47.15263367	1.0
23	-31.54000092	0	0	-1.49275279	-3.407013655	47.31035614	1.0
[RightHandRing3]
21	-29.37700081	0	0	-0.362285465	-1.797184467	22.79272652	1.0
22	-29.37700081	0	0	-0.3643881679	-1.802190185	22.8598938	1.0
23	-29.37700081	0	0	-0.3692969978	-1.813779116	23.01541138	1.0
[RightHandRing4]
21	-26.47500038	0	0	0	0	0	1.0
22	-26.47500038	0	0	0	0	0	1.0
23	-26.47500038	0	0	0	0	0	1.0
[RightHandMiddle1]
21	-95.32500458	0	0	-1.055774331	-0.7693184614	20.70487404	1.0
22	-95.32500458	0	0	-1.226561308	-0.6010440588	23.2481041	1.0
23	-95.32500458	0	0	-1.339641213	-0.2665211856	24.89371681	1.0
[RightHandMiddle2]
21	-36.98199844	0	0	-0.8468693495	-2.67134285	35.1738205	1.0
22	-36.98199844	0	0	-0.8577139378	-2.686658144	35.40603256	1.0
23	-36.98199844	0	0	-0.8632389903	-2.694403887	35.52365875	1.0
[RightHandMiddle3]
21	-29.50900078	0	0	-0.2906046808	-1.618148208	20.38628197	1.0
22	-29.50900078	0	0	-0.2971565425	-1.635661364	20.61745071	1.0
23	-29.50900078	0	0	-0.3004862666	-1.644475341	20.73370934	1.0
[RightHandMiddle4]
21	-28.3390007	0	0.0009999999311	0	0	0	1.0
22	-28.3390007	0	0.0009999999311	0	0	0	1.0
23	-28.3390007	0	0.0009999999311	0	0	0	1.0
[RightHandIndex1]
21	-91.08300018	-5.167999744	22.60099792	-0.9057692289	3.880728722	22.22389984	1.0
22	-91.08300018	-5.167999744	22.60099792	-1.329630256	4.360126495	25.41001701	1.0
23	-91.08300018	-5.167999744	22.60099792	-1.434357285	4.896204948	26.67712021	1.0
[RightHandIndex2]
21	-36.76399994	0	0	-0.3866194189	-1.853993297	23.55647659	1.0
22	-36.76399994	0	0	-0.3900368512	-1.86181283	23.66184425	1.0
23	-36.76399994	0	0	-0.3944892883	-1.871931911	23.79858017	1.0
[RightHandIndex3]
21	-28.83100128	0	0	-0.07468347251	-0.8291867375	10.2935915	1.0
22	-28.83100128	0	0	-0.07622246444	-0.837607801	10.39933395	1.0
23	-28.83100128	0	0	-0.0783130452	-0.8489069939	10.54121304	1.0
[RightHandIndex4]
21	-23.92700005	0	0	0	0	0	1.0
22	-23.92700005	0	0	0	0	0	1.0
23	-23.92700005	0	0	0	0	0	1.0
[RightHandThumb1]
21	-24.64799881	-15.72700024	26.82600021	12.78110313	-2.167885065	-4.410644054	1.0
22	-24.64799881	-15.72700024	26.82600021	12.78110313	-2.167885065	-4.410644054	1.0
23	-24.64799881	-15.72700024	26.82600021	12.78110313	-2.167885065	-4.410644054	1.0
[RightHandThumb2]
21	-32.29800034	-18.64699936	18.64699936	11.19549561	-17.09298134	-9.456114769	1.0
22	-32.29800034	-18.64699936	18.64699936	11.43557644	-18.56811142	-9.073325157	1.0
23	-32.29800034	-18.64699936	18.64699936	10.43909264	-18.78133583	-8.9557724	1.0
[RightHandThumb3]
21	-26.52600098	-15.31399918	15.31399918	-15.53784084	-4.724086285	-11.28447533	1.0
22	-26.52600098	-15.31399918	15.31399918	-15.5929451	-4.593615532	-11.32565498	1.0
23	-26.52600098	-15.31399918	15.31399918	-15.61493015	-4.541611671	-11.3420887	1.0
[RightHandThumb4]
21	-19.54599953	-11.28499985	11.28499985	0	0	0	1.0
22	-19.54599953	-11.28499985	11.28499985	0	0	0	1.0
23	-19.54599953	-11.28499985	11.28499985	0	0	0	1.0
[LeftUpLeg]
21	82.07800293	-67.51699829	-15.99599934	17.50605202	17.15418243	6.564874172	1.0
22	82.07800293	-67.51699829	-15.99599934	6.580897808	15.94943523	6.134860516	1.0
23	82.07800293	-67.51699829	-15.99599934	-5.384224415	12.99647045	3.807661772	1.0
[LeftLeg]
21	0	-443.7049866	2.845999956	24.40180969	-12.99526405	4.456382275	1.0
22	0	-443.7049866	2.845999956	48.40454102	-13.42646408	-1.430754542	1.0
23	0	-443.7049866	2.845999956	64.9418335	-8.70168972	-1.203132272	1.0
[LeftFoot]
21	0	-444.2789917	-29.8219986	1.788885474	-8.324933052	-1.194791555	1.0
22	0	-444.2789917	-29.8219986	13.57570553	-1.466070771	-4.613535404	1.0
23	0	-444.2789917	-29.8219986	11.4988451	0.539881587	-5.05579567	1.0
[LeftToeBase]
21	0	-87.28699493	107.1060028	-28.83745575	-5.893033403e-07	-5.360555555e-09	1.0
22	0	-87.28699493	107.1060028	-15.60665798	-6.176891247e-07	2.93741914e-06	1.0
23	0	-87.28699493	107.1060028	-9.29725647	-1.437786409e-06	-2.448880423e-06	1.0
[RightUpLeg]
21	-82.07800293	-67.51699829	-15.99599934	-39.18585587	-7.422904015	0.5452390909	1.0
22	-82.07800293	-67.51699829	-15.99599934	-37.45808792	-8.140865326	0.9412829876	1.0
23	-82.07800293	-67.51699829	-15.99599934	-34.09867477	-8.046038628	1.441463232	1.0
[RightLeg]
21	0	-443.7049866	2.861999989	31.26211929	0.5417711735	0.4719108045	1.0
22	0	-443.7049866	2.861999989	36.77083206	0.5544739366	2.461996317	1.0
23	0	-443.7049866	2.861999989	37.89282227	0.950635314	3.075469255	1.0
[RightFoot]
21	0	-444.2770081	-29.83799934	3.174506187	0.07000161707	-1.448111534	1.0
22	0	-444.2770081	-29.83799934	-1.926242471	-0.1121491566	-3.245492458	1.0
23	0	-444.2770081	-29.83799934	-6.622365475	-0.3418515921	-3.870759726	1.0
[RightToeBase]
21	0	-87.28699493	107.1060028	-8.353032112	1.196883801e-07	3.7729572e-07	1.0
22	0	-87.28699493	107.1060028	-6.145870686	-3.246199043e-08	4.430941374e-07	1.0
23	0	-87.28699493	107.1060028	-6.26632309	-6.24767722e-07	-2.197226934e-07	1.0
[EndOfFile]
